solid OpenSCAD_Model
  facet normal -0.866025 -0.5 0
    outer loop
      vertex 8.92006 15 0
      vertex 4.46003 22.725 10
      vertex 4.46003 22.725 0
    endloop
  endfacet
  facet normal -0.866025 -0.5 0
    outer loop
      vertex 4.46003 22.725 10
      vertex 8.92006 15 0
      vertex 8.92006 15 10
    endloop
  endfacet
  facet normal 0 1 -0
    outer loop
      vertex 4.46003 7.275 0
      vertex -4.46003 7.275 10
      vertex 4.46003 7.275 10
    endloop
  endfacet
  facet normal 0 1 0
    outer loop
      vertex -4.46003 7.275 10
      vertex 4.46003 7.275 0
      vertex -4.46003 7.275 0
    endloop
  endfacet
  facet normal 0.866025 -0.5 0
    outer loop
      vertex -8.92006 15 10
      vertex -4.46003 22.725 0
      vertex -4.46003 22.725 10
    endloop
  endfacet
  facet normal 0.866025 -0.5 0
    outer loop
      vertex -4.46003 22.725 0
      vertex -8.92006 15 10
      vertex -8.92006 15 0
    endloop
  endfacet
  facet normal 0 -1 0
    outer loop
      vertex -4.46003 22.725 0
      vertex 4.46003 22.725 10
      vertex -4.46003 22.725 10
    endloop
  endfacet
  facet normal 0 -1 -0
    outer loop
      vertex 4.46003 22.725 10
      vertex -4.46003 22.725 0
      vertex 4.46003 22.725 0
    endloop
  endfacet
  facet normal 0.866025 0.5 0
    outer loop
      vertex -4.46003 7.275 10
      vertex -8.92006 15 0
      vertex -8.92006 15 10
    endloop
  endfacet
  facet normal 0.866025 0.5 0
    outer loop
      vertex -8.92006 15 0
      vertex -4.46003 7.275 10
      vertex -4.46003 7.275 0
    endloop
  endfacet
  facet normal -0.866025 0.5 0
    outer loop
      vertex 4.46003 7.275 0
      vertex 8.92006 15 10
      vertex 8.92006 15 0
    endloop
  endfacet
  facet normal -0.866025 0.5 0
    outer loop
      vertex 8.92006 15 10
      vertex 4.46003 7.275 0
      vertex 4.46003 7.275 10
    endloop
  endfacet
  facet normal 0.906308 0.422619 0
    outer loop
      vertex 10.2615 18.7349 10
      vertex 9.45705 20.46 0
      vertex 9.45705 20.46 10
    endloop
  endfacet
  facet normal 0.906308 0.422619 0
    outer loop
      vertex 9.45705 20.46 0
      vertex 10.2615 18.7349 10
      vertex 10.2615 18.7349 0
    endloop
  endfacet
  facet normal 0 0 -1
    outer loop
      vertex 8.92006 15 0
      vertex 10.9201 15 0
      vertex 10.7542 13.1038 0
    endloop
  endfacet
  facet normal 0 0 -1
    outer loop
      vertex 8.92006 15 0
      vertex 10.7542 13.1038 0
      vertex 10.2615 11.2651 0
    endloop
  endfacet
  facet normal 0 0 -1
    outer loop
      vertex 10.9201 15 0
      vertex 8.92006 15 0
      vertex 10.7542 16.8962 0
    endloop
  endfacet
  facet normal 0 0 -1
    outer loop
      vertex 8.92006 15 0
      vertex 10.2615 11.2651 0
      vertex 9.45705 9.53997 0
    endloop
  endfacet
  facet normal -0 0 -1
    outer loop
      vertex 10.7542 16.8962 0
      vertex 8.92006 15 0
      vertex 10.2615 18.7349 0
    endloop
  endfacet
  facet normal -0 0 -1
    outer loop
      vertex 10.2615 18.7349 0
      vertex 8.92006 15 0
      vertex 9.45705 20.46 0
    endloop
  endfacet
  facet normal 0 0 -1
    outer loop
      vertex 4.46003 7.275 0
      vertex 9.45705 9.53997 0
      vertex 8.36525 7.98072 0
    endloop
  endfacet
  facet normal 0 0 -1
    outer loop
      vertex 4.46003 7.275 0
      vertex 8.36525 7.98072 0
      vertex 7.01928 6.63475 0
    endloop
  endfacet
  facet normal 0 0 -1
    outer loop
      vertex 4.46003 7.275 0
      vertex 7.01928 6.63475 0
      vertex 5.46003 5.54295 0
    endloop
  endfacet
  facet normal -0 0 -1
    outer loop
      vertex 9.45705 9.53997 0
      vertex 4.46003 7.275 0
      vertex 8.92006 15 0
    endloop
  endfacet
  facet normal 0 0 -1
    outer loop
      vertex 3.73488 4.7385 0
      vertex 4.46003 7.275 0
      vertex 5.46003 5.54295 0
    endloop
  endfacet
  facet normal 0 0 -1
    outer loop
      vertex 1.89625 4.24584 0
      vertex 4.46003 7.275 0
      vertex 3.73488 4.7385 0
    endloop
  endfacet
  facet normal 0 0 -1
    outer loop
      vertex 0 4.07994 0
      vertex 4.46003 7.275 0
      vertex 1.89625 4.24584 0
    endloop
  endfacet
  facet normal 0 0 -1
    outer loop
      vertex -4.46003 7.275 0
      vertex 0 4.07994 0
      vertex -1.89625 4.24584 0
    endloop
  endfacet
  facet normal 0 0 -1
    outer loop
      vertex -4.46003 7.275 0
      vertex -1.89625 4.24584 0
      vertex -3.73488 4.7385 0
    endloop
  endfacet
  facet normal 0 0 -1
    outer loop
      vertex 0 4.07994 0
      vertex -4.46003 7.275 0
      vertex 4.46003 7.275 0
    endloop
  endfacet
  facet normal 0 0 -1
    outer loop
      vertex -5.46003 5.54295 0
      vertex -4.46003 7.275 0
      vertex -3.73488 4.7385 0
    endloop
  endfacet
  facet normal 0 0 -1
    outer loop
      vertex -7.01928 6.63475 0
      vertex -4.46003 7.275 0
      vertex -5.46003 5.54295 0
    endloop
  endfacet
  facet normal 0 0 -1
    outer loop
      vertex -8.36525 7.98072 0
      vertex -4.46003 7.275 0
      vertex -7.01928 6.63475 0
    endloop
  endfacet
  facet normal 0 0 -1
    outer loop
      vertex -9.45705 9.53997 0
      vertex -4.46003 7.275 0
      vertex -8.36525 7.98072 0
    endloop
  endfacet
  facet normal 0 0 -1
    outer loop
      vertex -4.46003 7.275 0
      vertex -9.45705 9.53997 0
      vertex -8.92006 15 0
    endloop
  endfacet
  facet normal 0 0 -1
    outer loop
      vertex 4.46003 22.725 0
      vertex 9.45705 20.46 0
      vertex 8.92006 15 0
    endloop
  endfacet
  facet normal 0 0 -1
    outer loop
      vertex 9.45705 20.46 0
      vertex 4.46003 22.725 0
      vertex 8.36525 22.0193 0
    endloop
  endfacet
  facet normal 0 0 -1
    outer loop
      vertex 8.36525 22.0193 0
      vertex 4.46003 22.725 0
      vertex 7.01928 23.3653 0
    endloop
  endfacet
  facet normal -0 0 -1
    outer loop
      vertex 7.01928 23.3653 0
      vertex 4.46003 22.725 0
      vertex 5.46003 24.4571 0
    endloop
  endfacet
  facet normal 0 0 -1
    outer loop
      vertex 4.46003 22.725 0
      vertex 3.73488 25.2615 0
      vertex 5.46003 24.4571 0
    endloop
  endfacet
  facet normal 0 0 -1
    outer loop
      vertex 4.46003 22.725 0
      vertex 1.89625 25.7542 0
      vertex 3.73488 25.2615 0
    endloop
  endfacet
  facet normal 0 0 -1
    outer loop
      vertex 4.46003 22.725 0
      vertex 0 25.9201 0
      vertex 1.89625 25.7542 0
    endloop
  endfacet
  facet normal 0 0 -1
    outer loop
      vertex -4.46003 22.725 0
      vertex 0 25.9201 0
      vertex 4.46003 22.725 0
    endloop
  endfacet
  facet normal 0 0 -1
    outer loop
      vertex 0 25.9201 0
      vertex -4.46003 22.725 0
      vertex -1.89625 25.7542 0
    endloop
  endfacet
  facet normal 0 0 -1
    outer loop
      vertex -1.89625 25.7542 0
      vertex -4.46003 22.725 0
      vertex -3.73488 25.2615 0
    endloop
  endfacet
  facet normal 0 0 -1
    outer loop
      vertex -4.46003 22.725 0
      vertex -5.46003 24.4571 0
      vertex -3.73488 25.2615 0
    endloop
  endfacet
  facet normal 0 0 -1
    outer loop
      vertex -4.46003 22.725 0
      vertex -7.01928 23.3653 0
      vertex -5.46003 24.4571 0
    endloop
  endfacet
  facet normal -0 0 -1
    outer loop
      vertex -4.46003 22.725 0
      vertex -8.36525 22.0193 0
      vertex -7.01928 23.3653 0
    endloop
  endfacet
  facet normal 0 0 -1
    outer loop
      vertex -9.45705 20.46 0
      vertex -4.46003 22.725 0
      vertex -8.92006 15 0
    endloop
  endfacet
  facet normal 0 0 -1
    outer loop
      vertex -10.2615 11.2651 0
      vertex -8.92006 15 0
      vertex -9.45705 9.53997 0
    endloop
  endfacet
  facet normal 0 0 -1
    outer loop
      vertex -4.46003 22.725 0
      vertex -9.45705 20.46 0
      vertex -8.36525 22.0193 0
    endloop
  endfacet
  facet normal 0 0 -1
    outer loop
      vertex -10.7542 13.1038 0
      vertex -8.92006 15 0
      vertex -10.2615 11.2651 0
    endloop
  endfacet
  facet normal 0 0 -1
    outer loop
      vertex -8.92006 15 0
      vertex -10.2615 18.7349 0
      vertex -9.45705 20.46 0
    endloop
  endfacet
  facet normal 0 0 -1
    outer loop
      vertex -10.9201 15 0
      vertex -8.92006 15 0
      vertex -10.7542 13.1038 0
    endloop
  endfacet
  facet normal 0 0 -1
    outer loop
      vertex -8.92006 15 0
      vertex -10.7542 16.8962 0
      vertex -10.2615 18.7349 0
    endloop
  endfacet
  facet normal 0 0 -1
    outer loop
      vertex -8.92006 15 0
      vertex -10.9201 15 0
      vertex -10.7542 16.8962 0
    endloop
  endfacet
  facet normal 0.996195 -0.0871557 0
    outer loop
      vertex 10.7542 13.1038 10
      vertex 10.9201 15 0
      vertex 10.9201 15 10
    endloop
  endfacet
  facet normal 0.996195 -0.0871557 0
    outer loop
      vertex 10.9201 15 0
      vertex 10.7542 13.1038 10
      vertex 10.7542 13.1038 0
    endloop
  endfacet
  facet normal 0.819152 0.573576 0
    outer loop
      vertex 9.45705 20.46 10
      vertex 8.36525 22.0193 0
      vertex 8.36525 22.0193 10
    endloop
  endfacet
  facet normal 0.819152 0.573576 0
    outer loop
      vertex 8.36525 22.0193 0
      vertex 9.45705 20.46 10
      vertex 9.45705 20.46 0
    endloop
  endfacet
  facet normal 0.422618 0.906308 -0
    outer loop
      vertex 5.46003 24.4571 0
      vertex 3.73488 25.2615 10
      vertex 5.46003 24.4571 10
    endloop
  endfacet
  facet normal 0.422618 0.906308 0
    outer loop
      vertex 3.73488 25.2615 10
      vertex 5.46003 24.4571 0
      vertex 3.73488 25.2615 0
    endloop
  endfacet
  facet normal -0.422618 0.906308 0
    outer loop
      vertex -3.73488 25.2615 0
      vertex -5.46003 24.4571 10
      vertex -3.73488 25.2615 10
    endloop
  endfacet
  facet normal -0.422618 0.906308 0
    outer loop
      vertex -5.46003 24.4571 10
      vertex -3.73488 25.2615 0
      vertex -5.46003 24.4571 0
    endloop
  endfacet
  facet normal -0.906308 0.422619 0
    outer loop
      vertex -10.2615 18.7349 0
      vertex -9.45705 20.46 10
      vertex -9.45705 20.46 0
    endloop
  endfacet
  facet normal -0.906308 0.422619 0
    outer loop
      vertex -9.45705 20.46 10
      vertex -10.2615 18.7349 0
      vertex -10.2615 18.7349 10
    endloop
  endfacet
  facet normal 0.707107 0.707107 0
    outer loop
      vertex 8.36525 22.0193 10
      vertex 7.01928 23.3653 0
      vertex 7.01928 23.3653 10
    endloop
  endfacet
  facet normal 0.707107 0.707107 0
    outer loop
      vertex 7.01928 23.3653 0
      vertex 8.36525 22.0193 10
      vertex 8.36525 22.0193 0
    endloop
  endfacet
  facet normal -0.0871553 0.996195 0
    outer loop
      vertex 0 25.9201 0
      vertex -1.89625 25.7542 10
      vertex 0 25.9201 10
    endloop
  endfacet
  facet normal -0.0871553 0.996195 0
    outer loop
      vertex -1.89625 25.7542 10
      vertex 0 25.9201 0
      vertex -1.89625 25.7542 0
    endloop
  endfacet
  facet normal 0.573576 0.819152 -0
    outer loop
      vertex 7.01928 23.3653 0
      vertex 5.46003 24.4571 10
      vertex 7.01928 23.3653 10
    endloop
  endfacet
  facet normal 0.573576 0.819152 0
    outer loop
      vertex 5.46003 24.4571 10
      vertex 7.01928 23.3653 0
      vertex 5.46003 24.4571 0
    endloop
  endfacet
  facet normal -0.996195 0.0871558 0
    outer loop
      vertex -10.9201 15 0
      vertex -10.7542 16.8962 10
      vertex -10.7542 16.8962 0
    endloop
  endfacet
  facet normal -0.996195 0.0871558 0
    outer loop
      vertex -10.7542 16.8962 10
      vertex -10.9201 15 0
      vertex -10.9201 15 10
    endloop
  endfacet
  facet normal -0.819152 0.573576 0
    outer loop
      vertex -9.45705 20.46 0
      vertex -8.36525 22.0193 10
      vertex -8.36525 22.0193 0
    endloop
  endfacet
  facet normal -0.819152 0.573576 0
    outer loop
      vertex -8.36525 22.0193 10
      vertex -9.45705 20.46 0
      vertex -9.45705 20.46 10
    endloop
  endfacet
  facet normal -0.573576 0.819152 0
    outer loop
      vertex -5.46003 24.4571 0
      vertex -7.01928 23.3653 10
      vertex -5.46003 24.4571 10
    endloop
  endfacet
  facet normal -0.573576 0.819152 0
    outer loop
      vertex -7.01928 23.3653 10
      vertex -5.46003 24.4571 0
      vertex -7.01928 23.3653 0
    endloop
  endfacet
  facet normal -0.258819 0.965926 0
    outer loop
      vertex -1.89625 25.7542 0
      vertex -3.73488 25.2615 10
      vertex -1.89625 25.7542 10
    endloop
  endfacet
  facet normal -0.258819 0.965926 0
    outer loop
      vertex -3.73488 25.2615 10
      vertex -1.89625 25.7542 0
      vertex -3.73488 25.2615 0
    endloop
  endfacet
  facet normal -0.707107 0.707107 0
    outer loop
      vertex -8.36525 22.0193 0
      vertex -7.01928 23.3653 10
      vertex -7.01928 23.3653 0
    endloop
  endfacet
  facet normal -0.707107 0.707107 0
    outer loop
      vertex -7.01928 23.3653 10
      vertex -8.36525 22.0193 0
      vertex -8.36525 22.0193 10
    endloop
  endfacet
  facet normal 0.996195 0.0871558 0
    outer loop
      vertex 10.9201 15 10
      vertex 10.7542 16.8962 0
      vertex 10.7542 16.8962 10
    endloop
  endfacet
  facet normal 0.996195 0.0871558 0
    outer loop
      vertex 10.7542 16.8962 0
      vertex 10.9201 15 10
      vertex 10.9201 15 0
    endloop
  endfacet
  facet normal 0.573576 -0.819152 0
    outer loop
      vertex 5.46003 5.54295 0
      vertex 7.01928 6.63475 10
      vertex 5.46003 5.54295 10
    endloop
  endfacet
  facet normal 0.573576 -0.819152 0
    outer loop
      vertex 7.01928 6.63475 10
      vertex 5.46003 5.54295 0
      vertex 7.01928 6.63475 0
    endloop
  endfacet
  facet normal 0.906308 -0.422618 0
    outer loop
      vertex 9.45705 9.53997 10
      vertex 10.2615 11.2651 0
      vertex 10.2615 11.2651 10
    endloop
  endfacet
  facet normal 0.906308 -0.422618 0
    outer loop
      vertex 10.2615 11.2651 0
      vertex 9.45705 9.53997 10
      vertex 9.45705 9.53997 0
    endloop
  endfacet
  facet normal 0.965926 0.258819 0
    outer loop
      vertex 10.7542 16.8962 10
      vertex 10.2615 18.7349 0
      vertex 10.2615 18.7349 10
    endloop
  endfacet
  facet normal 0.965926 0.258819 0
    outer loop
      vertex 10.2615 18.7349 0
      vertex 10.7542 16.8962 10
      vertex 10.7542 16.8962 0
    endloop
  endfacet
  facet normal 0.258819 0.965926 -0
    outer loop
      vertex 3.73488 25.2615 0
      vertex 1.89625 25.7542 10
      vertex 3.73488 25.2615 10
    endloop
  endfacet
  facet normal 0.258819 0.965926 0
    outer loop
      vertex 1.89625 25.7542 10
      vertex 3.73488 25.2615 0
      vertex 1.89625 25.7542 0
    endloop
  endfacet
  facet normal 0.0871553 0.996195 -0
    outer loop
      vertex 1.89625 25.7542 0
      vertex 0 25.9201 10
      vertex 1.89625 25.7542 10
    endloop
  endfacet
  facet normal 0.0871553 0.996195 0
    outer loop
      vertex 0 25.9201 10
      vertex 1.89625 25.7542 0
      vertex 0 25.9201 0
    endloop
  endfacet
  facet normal -0.996195 -0.0871557 0
    outer loop
      vertex -10.7542 13.1038 0
      vertex -10.9201 15 10
      vertex -10.9201 15 0
    endloop
  endfacet
  facet normal -0.996195 -0.0871557 0
    outer loop
      vertex -10.9201 15 10
      vertex -10.7542 13.1038 0
      vertex -10.7542 13.1038 10
    endloop
  endfacet
  facet normal -0.965926 0.258819 0
    outer loop
      vertex -10.7542 16.8962 0
      vertex -10.2615 18.7349 10
      vertex -10.2615 18.7349 0
    endloop
  endfacet
  facet normal -0.965926 0.258819 0
    outer loop
      vertex -10.2615 18.7349 10
      vertex -10.7542 16.8962 0
      vertex -10.7542 16.8962 10
    endloop
  endfacet
  facet normal -0.965926 -0.258819 0
    outer loop
      vertex -10.2615 11.2651 0
      vertex -10.7542 13.1038 10
      vertex -10.7542 13.1038 0
    endloop
  endfacet
  facet normal -0.965926 -0.258819 0
    outer loop
      vertex -10.7542 13.1038 10
      vertex -10.2615 11.2651 0
      vertex -10.2615 11.2651 10
    endloop
  endfacet
  facet normal -0.819152 -0.573576 0
    outer loop
      vertex -8.36525 7.98072 0
      vertex -9.45705 9.53997 10
      vertex -9.45705 9.53997 0
    endloop
  endfacet
  facet normal -0.819152 -0.573576 0
    outer loop
      vertex -9.45705 9.53997 10
      vertex -8.36525 7.98072 0
      vertex -8.36525 7.98072 10
    endloop
  endfacet
  facet normal 0.965926 -0.258819 0
    outer loop
      vertex 10.2615 11.2651 10
      vertex 10.7542 13.1038 0
      vertex 10.7542 13.1038 10
    endloop
  endfacet
  facet normal 0.965926 -0.258819 0
    outer loop
      vertex 10.7542 13.1038 0
      vertex 10.2615 11.2651 10
      vertex 10.2615 11.2651 0
    endloop
  endfacet
  facet normal 0.819152 -0.573576 0
    outer loop
      vertex 8.36525 7.98072 10
      vertex 9.45705 9.53997 0
      vertex 9.45705 9.53997 10
    endloop
  endfacet
  facet normal 0.819152 -0.573576 0
    outer loop
      vertex 9.45705 9.53997 0
      vertex 8.36525 7.98072 10
      vertex 8.36525 7.98072 0
    endloop
  endfacet
  facet normal 0.258819 -0.965926 0
    outer loop
      vertex 1.89625 4.24584 0
      vertex 3.73488 4.7385 10
      vertex 1.89625 4.24584 10
    endloop
  endfacet
  facet normal 0.258819 -0.965926 0
    outer loop
      vertex 3.73488 4.7385 10
      vertex 1.89625 4.24584 0
      vertex 3.73488 4.7385 0
    endloop
  endfacet
  facet normal 0.422618 -0.906308 0
    outer loop
      vertex 3.73488 4.7385 0
      vertex 5.46003 5.54295 10
      vertex 3.73488 4.7385 10
    endloop
  endfacet
  facet normal 0.422618 -0.906308 0
    outer loop
      vertex 5.46003 5.54295 10
      vertex 3.73488 4.7385 0
      vertex 5.46003 5.54295 0
    endloop
  endfacet
  facet normal 0.707107 -0.707107 0
    outer loop
      vertex 7.01928 6.63475 10
      vertex 8.36525 7.98072 0
      vertex 8.36525 7.98072 10
    endloop
  endfacet
  facet normal 0.707107 -0.707107 0
    outer loop
      vertex 8.36525 7.98072 0
      vertex 7.01928 6.63475 10
      vertex 7.01928 6.63475 0
    endloop
  endfacet
  facet normal 0 0 1
    outer loop
      vertex 8.92006 15 10
      vertex 10.9201 15 10
      vertex 10.7542 16.8962 10
    endloop
  endfacet
  facet normal 0 0 1
    outer loop
      vertex 8.92006 15 10
      vertex 10.7542 16.8962 10
      vertex 10.2615 18.7349 10
    endloop
  endfacet
  facet normal 0 0 1
    outer loop
      vertex 10.9201 15 10
      vertex 8.92006 15 10
      vertex 10.7542 13.1038 10
    endloop
  endfacet
  facet normal 0 0 1
    outer loop
      vertex 8.92006 15 10
      vertex 10.2615 18.7349 10
      vertex 9.45705 20.46 10
    endloop
  endfacet
  facet normal 0 0 1
    outer loop
      vertex 10.7542 13.1038 10
      vertex 8.92006 15 10
      vertex 10.2615 11.2651 10
    endloop
  endfacet
  facet normal 0 0 1
    outer loop
      vertex 10.2615 11.2651 10
      vertex 8.92006 15 10
      vertex 9.45705 9.53997 10
    endloop
  endfacet
  facet normal 0 0 1
    outer loop
      vertex 4.46003 22.725 10
      vertex 9.45705 20.46 10
      vertex 8.36525 22.0193 10
    endloop
  endfacet
  facet normal -0 0 1
    outer loop
      vertex 4.46003 22.725 10
      vertex 8.36525 22.0193 10
      vertex 7.01928 23.3653 10
    endloop
  endfacet
  facet normal 0 0 1
    outer loop
      vertex 4.46003 22.725 10
      vertex 7.01928 23.3653 10
      vertex 5.46003 24.4571 10
    endloop
  endfacet
  facet normal 0 0 1
    outer loop
      vertex 9.45705 20.46 10
      vertex 4.46003 22.725 10
      vertex 8.92006 15 10
    endloop
  endfacet
  facet normal 0 0 1
    outer loop
      vertex 3.73488 25.2615 10
      vertex 4.46003 22.725 10
      vertex 5.46003 24.4571 10
    endloop
  endfacet
  facet normal 0 0 1
    outer loop
      vertex 1.89625 25.7542 10
      vertex 4.46003 22.725 10
      vertex 3.73488 25.2615 10
    endloop
  endfacet
  facet normal 0 0 1
    outer loop
      vertex 0 25.9201 10
      vertex 4.46003 22.725 10
      vertex 1.89625 25.7542 10
    endloop
  endfacet
  facet normal 0 0 1
    outer loop
      vertex -4.46003 22.725 10
      vertex 0 25.9201 10
      vertex -1.89625 25.7542 10
    endloop
  endfacet
  facet normal 0 0 1
    outer loop
      vertex -4.46003 22.725 10
      vertex -1.89625 25.7542 10
      vertex -3.73488 25.2615 10
    endloop
  endfacet
  facet normal 0 0 1
    outer loop
      vertex 0 25.9201 10
      vertex -4.46003 22.725 10
      vertex 4.46003 22.725 10
    endloop
  endfacet
  facet normal -0 0 1
    outer loop
      vertex -5.46003 24.4571 10
      vertex -4.46003 22.725 10
      vertex -3.73488 25.2615 10
    endloop
  endfacet
  facet normal -0 0 1
    outer loop
      vertex -7.01928 23.3653 10
      vertex -4.46003 22.725 10
      vertex -5.46003 24.4571 10
    endloop
  endfacet
  facet normal 0 0 1
    outer loop
      vertex -8.36525 22.0193 10
      vertex -4.46003 22.725 10
      vertex -7.01928 23.3653 10
    endloop
  endfacet
  facet normal 0 0 1
    outer loop
      vertex -9.45705 20.46 10
      vertex -4.46003 22.725 10
      vertex -8.36525 22.0193 10
    endloop
  endfacet
  facet normal 0 0 1
    outer loop
      vertex -4.46003 22.725 10
      vertex -9.45705 20.46 10
      vertex -8.92006 15 10
    endloop
  endfacet
  facet normal 0 0 1
    outer loop
      vertex 4.46003 7.275 10
      vertex 9.45705 9.53997 10
      vertex 8.92006 15 10
    endloop
  endfacet
  facet normal 0 0 1
    outer loop
      vertex 9.45705 9.53997 10
      vertex 4.46003 7.275 10
      vertex 8.36525 7.98072 10
    endloop
  endfacet
  facet normal 0 0 1
    outer loop
      vertex 8.36525 7.98072 10
      vertex 4.46003 7.275 10
      vertex 7.01928 6.63475 10
    endloop
  endfacet
  facet normal 0 0 1
    outer loop
      vertex 7.01928 6.63475 10
      vertex 4.46003 7.275 10
      vertex 5.46003 5.54295 10
    endloop
  endfacet
  facet normal 0 0 1
    outer loop
      vertex 4.46003 7.275 10
      vertex 3.73488 4.7385 10
      vertex 5.46003 5.54295 10
    endloop
  endfacet
  facet normal 0 0 1
    outer loop
      vertex 4.46003 7.275 10
      vertex 1.89625 4.24584 10
      vertex 3.73488 4.7385 10
    endloop
  endfacet
  facet normal 0 0 1
    outer loop
      vertex 4.46003 7.275 10
      vertex 0 4.07994 10
      vertex 1.89625 4.24584 10
    endloop
  endfacet
  facet normal -0 0 1
    outer loop
      vertex -4.46003 7.275 10
      vertex 0 4.07994 10
      vertex 4.46003 7.275 10
    endloop
  endfacet
  facet normal 0 0 1
    outer loop
      vertex 0 4.07994 10
      vertex -4.46003 7.275 10
      vertex -1.89625 4.24584 10
    endloop
  endfacet
  facet normal 0 0 1
    outer loop
      vertex -1.89625 4.24584 10
      vertex -4.46003 7.275 10
      vertex -3.73488 4.7385 10
    endloop
  endfacet
  facet normal 0 0 1
    outer loop
      vertex -4.46003 7.275 10
      vertex -5.46003 5.54295 10
      vertex -3.73488 4.7385 10
    endloop
  endfacet
  facet normal 0 0 1
    outer loop
      vertex -4.46003 7.275 10
      vertex -7.01928 6.63475 10
      vertex -5.46003 5.54295 10
    endloop
  endfacet
  facet normal 0 0 1
    outer loop
      vertex -4.46003 7.275 10
      vertex -8.36525 7.98072 10
      vertex -7.01928 6.63475 10
    endloop
  endfacet
  facet normal -0 0 1
    outer loop
      vertex -9.45705 9.53997 10
      vertex -4.46003 7.275 10
      vertex -8.92006 15 10
    endloop
  endfacet
  facet normal -0 0 1
    outer loop
      vertex -10.2615 18.7349 10
      vertex -8.92006 15 10
      vertex -9.45705 20.46 10
    endloop
  endfacet
  facet normal 0 0 1
    outer loop
      vertex -4.46003 7.275 10
      vertex -9.45705 9.53997 10
      vertex -8.36525 7.98072 10
    endloop
  endfacet
  facet normal -0 0 1
    outer loop
      vertex -10.7542 16.8962 10
      vertex -8.92006 15 10
      vertex -10.2615 18.7349 10
    endloop
  endfacet
  facet normal 0 0 1
    outer loop
      vertex -8.92006 15 10
      vertex -10.2615 11.2651 10
      vertex -9.45705 9.53997 10
    endloop
  endfacet
  facet normal 0 0 1
    outer loop
      vertex -10.9201 15 10
      vertex -8.92006 15 10
      vertex -10.7542 16.8962 10
    endloop
  endfacet
  facet normal 0 0 1
    outer loop
      vertex -8.92006 15 10
      vertex -10.7542 13.1038 10
      vertex -10.2615 11.2651 10
    endloop
  endfacet
  facet normal 0 0 1
    outer loop
      vertex -8.92006 15 10
      vertex -10.9201 15 10
      vertex -10.7542 13.1038 10
    endloop
  endfacet
  facet normal -0.573576 -0.819152 0
    outer loop
      vertex -7.01928 6.63475 0
      vertex -5.46003 5.54295 10
      vertex -7.01928 6.63475 10
    endloop
  endfacet
  facet normal -0.573576 -0.819152 -0
    outer loop
      vertex -5.46003 5.54295 10
      vertex -7.01928 6.63475 0
      vertex -5.46003 5.54295 0
    endloop
  endfacet
  facet normal 0.0871558 -0.996195 0
    outer loop
      vertex 0 4.07994 0
      vertex 1.89625 4.24584 10
      vertex 0 4.07994 10
    endloop
  endfacet
  facet normal 0.0871558 -0.996195 0
    outer loop
      vertex 1.89625 4.24584 10
      vertex 0 4.07994 0
      vertex 1.89625 4.24584 0
    endloop
  endfacet
  facet normal -0.422618 -0.906308 0
    outer loop
      vertex -5.46003 5.54295 0
      vertex -3.73488 4.7385 10
      vertex -5.46003 5.54295 10
    endloop
  endfacet
  facet normal -0.422618 -0.906308 -0
    outer loop
      vertex -3.73488 4.7385 10
      vertex -5.46003 5.54295 0
      vertex -3.73488 4.7385 0
    endloop
  endfacet
  facet normal -0.906308 -0.422618 0
    outer loop
      vertex -9.45705 9.53997 0
      vertex -10.2615 11.2651 10
      vertex -10.2615 11.2651 0
    endloop
  endfacet
  facet normal -0.906308 -0.422618 0
    outer loop
      vertex -10.2615 11.2651 10
      vertex -9.45705 9.53997 0
      vertex -9.45705 9.53997 10
    endloop
  endfacet
  facet normal -0.707107 -0.707107 0
    outer loop
      vertex -7.01928 6.63475 0
      vertex -8.36525 7.98072 10
      vertex -8.36525 7.98072 0
    endloop
  endfacet
  facet normal -0.707107 -0.707107 0
    outer loop
      vertex -8.36525 7.98072 10
      vertex -7.01928 6.63475 0
      vertex -7.01928 6.63475 10
    endloop
  endfacet
  facet normal -0.258819 -0.965926 0
    outer loop
      vertex -3.73488 4.7385 0
      vertex -1.89625 4.24584 10
      vertex -3.73488 4.7385 10
    endloop
  endfacet
  facet normal -0.258819 -0.965926 -0
    outer loop
      vertex -1.89625 4.24584 10
      vertex -3.73488 4.7385 0
      vertex -1.89625 4.24584 0
    endloop
  endfacet
  facet normal -0.0871558 -0.996195 0
    outer loop
      vertex -1.89625 4.24584 0
      vertex 0 4.07994 10
      vertex -1.89625 4.24584 10
    endloop
  endfacet
  facet normal -0.0871558 -0.996195 -0
    outer loop
      vertex 0 4.07994 10
      vertex -1.89625 4.24584 0
      vertex 0 4.07994 0
    endloop
  endfacet
endsolid OpenSCAD_Model
